<svg width="48" height="51" viewBox="0 0 48 51" fill="none" xmlns="http://www.w3.org/2000/svg">
<path d="M29.1799 49.4895C29.0906 49.4895 29.046 49.5353 29.046 49.627V49.7644C29.046 49.8561 29.0906 49.9019 29.1799 49.9019H46.8484C46.9823 49.9019 47.0492 49.8561 47.0492 49.7644V49.627C47.0492 49.5353 46.9823 49.4895 46.8484 49.4895H44.7737C43.3906 49.4895 42.409 49.2375 41.8289 48.7334C41.2935 48.2293 40.8473 47.4046 40.4904 46.259C38.2595 39.2021 36.1848 32.1452 34.2663 25.0885C32.3477 18.0316 30.4515 10.9289 28.5776 3.78041C28.3098 2.81809 28.3098 2.01628 28.5776 1.37474C28.8453 0.733193 29.4699 0.412421 30.4515 0.412421H34.4671C34.6009 0.412421 34.6678 0.343684 34.6678 0.20621V0.137474C34.6678 0.0458248 34.6009 0 34.4671 0H7.69656C7.518 0 7.42884 0.0458248 7.42884 0.137474V0.20621C7.42884 0.343684 7.518 0.412421 7.69656 0.412421H12.6491C13.5414 0.412421 13.9876 0.824843 13.9876 1.64969C13.9876 2.01628 13.943 2.38288 13.8537 2.74936C13.7645 3.07013 13.6083 3.55129 13.3853 4.19283C12.9837 5.2468 12.4929 6.50697 11.9129 7.97336C11.3775 9.3938 10.8197 10.8602 10.2397 12.3724C9.65966 13.8846 9.10195 15.3509 8.56651 16.7714C8.03118 18.192 7.56264 19.4293 7.16112 20.4831C6.31343 22.7285 5.44336 24.9281 4.55103 27.0817C3.70323 29.2355 2.9447 31.2975 2.27546 33.2679C1.60621 35.1926 1.04851 37.0254 0.602345 38.7668C0.20082 40.4623 0 42.0203 0 43.4408C0 45.8695 0.580082 47.6336 1.74013 48.7334C2.90018 49.8332 4.35021 50.3831 6.09034 50.3831C7.518 50.3831 8.81197 49.9936 9.97202 49.2145C11.1321 48.3897 12.2252 47.3817 13.2515 46.1902C14.3222 44.953 15.3261 43.647 16.2631 42.2722C17.2447 40.8518 18.2485 39.5458 19.2748 38.3543C20.3009 37.1171 21.3718 36.1091 22.4872 35.33C23.6473 34.5052 24.8966 34.0928 26.2351 34.0928C28.3767 34.0928 30.0276 34.7343 31.1876 36.0174C32.3477 37.3004 33.1955 38.7668 33.7308 40.4165C34.0878 41.4246 34.3555 42.3868 34.534 43.3033C34.7571 44.2198 34.9802 45.0446 35.2032 45.7778C35.2925 46.1902 35.3148 46.6256 35.2701 47.0838C35.2701 47.5421 35.1363 47.9544 34.8686 48.321C34.6455 48.6417 34.244 48.9167 33.6639 49.1458C33.1285 49.3749 32.3923 49.4895 31.4554 49.4895H29.1799ZM11.3775 21.5829C13.9207 21.5829 15.7723 22.1786 16.9323 23.3701C18.0924 24.5157 18.6724 26.3944 18.6724 29.0064V36.1549C17.6908 36.888 16.7316 37.667 15.7946 38.4918C14.8577 39.3167 13.943 40.0728 13.0506 40.7601C12.1583 41.4475 11.2882 42.0202 10.4406 42.4784C9.59276 42.8909 8.74507 43.0971 7.89726 43.0971C6.64805 43.0971 5.51026 42.7076 4.48402 41.9287C3.45789 41.1038 2.94471 39.752 2.94471 37.8732C2.94471 36.7276 3.12326 35.4217 3.48015 33.9553C3.88167 32.4431 4.32795 30.9309 4.81864 29.4188C5.35408 27.9066 5.88953 26.4631 6.42497 25.0885C6.9603 23.7137 7.40646 22.5452 7.76346 21.5829H11.3775ZM13.9876 4.94894C14.5231 3.5742 15.1923 2.68074 15.9953 2.26832C16.8432 1.8559 17.7355 1.62677 18.6724 1.58095V13.5409C18.6724 16.2445 18.1147 18.192 16.9993 19.3834C15.8838 20.5748 14.0099 21.1705 11.3775 21.1705H7.89726C8.56651 19.3834 9.23587 17.5963 9.90512 15.8091C10.5744 13.9763 11.199 12.3037 11.7791 10.7915C12.359 9.27924 12.8276 7.99627 13.1844 6.94231C13.5861 5.88834 13.8537 5.22388 13.9876 4.94894ZM30.7192 29.3501C30.8084 29.6708 30.8977 30.0603 30.9868 30.5186C31.0761 30.9767 31.1207 31.412 31.1207 31.8245C31.1654 32.2369 31.143 32.6264 31.0538 32.993C31.0092 33.3138 30.8753 33.5429 30.6522 33.6804C30.563 33.7262 30.4069 33.7491 30.1838 33.7491C29.7376 33.7491 29.2022 33.6574 28.5776 33.4741C27.9975 33.245 27.1944 33.1305 26.1682 33.1305C24.9189 33.1305 23.7142 33.4054 22.5541 33.9553C21.3941 34.4594 20.234 35.1009 19.074 35.8799V29.0064C19.074 26.3485 19.6094 24.4469 20.6802 23.3013C21.7957 22.1557 23.6696 21.5829 26.302 21.5829H28.6445C29.0014 22.866 29.336 24.172 29.6483 25.5008C30.0053 26.7839 30.3622 28.067 30.7192 29.3501ZM26.302 21.1705C23.7588 21.1705 21.9072 20.5519 20.7472 19.3147C19.6317 18.0774 19.074 16.1528 19.074 13.5409V1.58095C20.6357 1.62677 21.7957 1.97046 22.5541 2.612C23.3126 3.25343 23.8481 4.12409 24.1604 5.22388C24.6511 6.96522 25.2759 9.23342 26.0344 12.0287C26.7928 14.8239 27.6182 17.8712 28.5105 21.1705H26.302Z" fill="#212529"/>
</svg>
